<?xml version="1.0" standalone="no"?>
<!DOCTYPE svg PUBLIC "-//W3C//DTD SVG 20010904//EN"
 "http://www.w3.org/TR/2001/REC-SVG-20010904/DTD/svg10.dtd">
<svg version="1.0" xmlns="http://www.w3.org/2000/svg"
 width="500.000000pt" height="500.000000pt" viewBox="0 0 500.000000 500.000000"
 preserveAspectRatio="xMidYMid meet">

<g transform="translate(0.000000,500.000000) scale(0.100000,-0.100000)"
fill="#000000" stroke="none">
<path d="M1665 4978 c-145 -74 -212 -249 -155 -402 28 -73 95 -144 162 -171
l47 -20 3 -281 c3 -248 1 -280 -12 -277 -30 8 -166 -27 -230 -59 -133 -67
-249 -219 -279 -366 -22 -104 -23 -102 73 -102 l84 0 6 43 c16 109 102 224
203 273 77 38 136 42 506 36 l337 -5 0 91 0 92 90 0 90 0 0 -90 0 -90 258 2
257 3 3 88 3 87 84 0 85 0 0 -90 0 -90 35 0 c103 0 239 -99 291 -212 l29 -63
3 -387 3 -388 85 0 84 0 0 -85 0 -85 -85 0 -85 0 0 -260 0 -260 85 0 84 0 3
-87 3 -88 275 0 274 0 29 -57 c31 -63 86 -116 156 -150 69 -34 187 -32 261 3
70 33 126 89 159 159 21 45 26 69 26 135 0 69 -4 89 -30 138 -32 64 -81 114
-147 149 -36 19 -58 23 -138 23 -79 0 -103 -4 -142 -23 -60 -30 -123 -94 -151
-154 l-22 -48 -277 0 -278 0 0 260 0 260 108 0 108 0 13 -35 c23 -64 85 -131
153 -164 83 -40 140 -47 216 -27 105 27 183 91 226 185 28 64 28 187 -1 252
-43 95 -120 158 -225 185 -76 20 -133 13 -215 -27 -70 -33 -122 -88 -150 -155
l-18 -44 -107 0 -108 0 0 265 0 265 274 0 c210 0 276 3 279 13 3 6 6 3 6 -8 2
-36 38 -103 80 -148 61 -66 126 -92 231 -92 99 0 153 21 220 87 116 112 126
307 23 427 -162 190 -465 138 -544 -92 -10 -29 -18 -46 -19 -39 0 9 -62 12
-275 12 l-275 0 0 33 c0 108 -68 256 -159 346 -82 82 -168 127 -285 149 l-86
16 0 272 0 272 54 26 c107 53 178 165 178 284 -1 37 -8 87 -17 111 -25 72 -87
145 -146 175 -47 23 -65 26 -158 26 -99 0 -109 -2 -157 -30 -59 -33 -94 -72
-132 -144 -36 -70 -37 -186 -3 -263 27 -62 103 -136 166 -164 l45 -20 0 -274
0 -275 -260 0 -260 0 0 108 0 107 47 19 c144 59 221 247 163 398 -29 79 -94
148 -170 182 -55 25 -72 28 -143 24 -93 -3 -147 -26 -210 -86 -146 -139 -122
-389 48 -497 30 -19 61 -35 70 -35 13 0 15 -17 15 -110 l0 -110 -260 0 -260 0
0 278 0 277 44 18 c67 27 122 80 156 151 75 151 17 337 -129 414 -55 30 -66
32 -157 32 -80 -1 -107 -5 -139 -22z m234 -166 c40 -29 63 -80 58 -131 -9 -80
-70 -136 -150 -136 -180 0 -208 258 -32 295 39 8 91 -4 124 -28z m1369 8 c65
-40 89 -120 58 -193 -24 -58 -102 -94 -167 -77 -105 29 -146 142 -85 235 35
53 135 71 194 35z m-704 -334 c109 -46 111 -213 2 -265 -23 -12 -53 -21 -66
-21 -49 0 -108 39 -131 86 -62 129 61 256 195 200z m2186 -1144 c69 -34 98
-130 62 -202 -69 -139 -282 -86 -282 70 0 114 116 184 220 132z m-393 -144
c-3 -7 -5 -2 -5 12 0 14 2 19 5 13 2 -7 2 -19 0 -25z m60 -558 c40 -24 66 -73
66 -125 0 -139 -164 -196 -262 -91 -33 35 -40 117 -13 165 37 67 141 93 209
51z m333 -689 c47 -25 83 -93 76 -145 -9 -78 -71 -131 -150 -131 -62 1 -105
27 -130 79 -63 133 75 267 204 197z"/>
<path d="M229 3515 c-107 -34 -191 -123 -220 -230 -36 -131 37 -291 162 -360
69 -37 180 -46 258 -20 66 22 149 97 181 164 l23 51 279 0 278 0 0 -260 0
-260 -225 0 -224 0 -19 43 c-107 242 -449 257 -578 25 -27 -49 -29 -61 -29
-153 0 -92 2 -104 29 -153 71 -128 218 -193 354 -158 104 26 183 91 224 183
l19 43 224 0 225 0 0 -264 0 -265 -109 -3 -108 -3 -17 49 c-25 70 -105 147
-181 176 -77 28 -179 24 -250 -10 -155 -75 -221 -259 -151 -416 76 -168 273
-237 437 -154 59 30 126 103 145 158 l17 47 108 -3 109 -3 0 -29 c0 -55 22
-135 57 -209 76 -160 272 -291 435 -291 l38 0 0 85 0 85 -35 0 c-103 0 -239
99 -291 212 l-29 63 -3 388 -3 387 -85 0 -84 0 0 85 0 85 85 0 85 0 0 260 0
260 -85 0 -84 0 -3 88 -3 87 -275 0 -275 0 -26 55 c-30 63 -84 116 -151 149
-60 29 -166 36 -229 16z m178 -183 c43 -31 66 -85 60 -140 -9 -83 -74 -136
-158 -129 -57 5 -93 30 -120 85 -35 72 -14 139 62 190 42 29 111 26 156 -6z
m101 -692 c34 -21 72 -87 72 -125 0 -11 -9 -38 -19 -61 -45 -98 -172 -114
-250 -30 -33 35 -40 117 -13 165 37 68 141 93 210 51z m259 -713 c124 -124
-25 -321 -178 -235 -50 28 -84 93 -76 148 17 126 165 177 254 87z m220 -129
c-2 -13 -4 -3 -4 22 0 25 2 35 4 23 2 -13 2 -33 0 -45z"/>
<path d="M1920 3389 c-112 -22 -217 -107 -268 -217 l-27 -57 0 -600 0 -600 28
-60 c50 -108 142 -182 259 -210 93 -22 1083 -22 1176 0 117 28 209 103 260
213 l27 57 0 600 0 600 -33 67 c-40 82 -119 157 -200 190 l-57 23 -560 2
c-308 1 -580 -3 -605 -8z m1195 -194 c35 -21 56 -45 74 -80 l26 -49 0 -546 c0
-595 0 -593 -58 -652 -70 -69 -51 -68 -657 -68 -508 0 -548 2 -585 19 -49 22
-87 57 -112 102 -17 32 -18 68 -18 595 l0 561 30 48 c22 36 45 57 84 77 l54
28 557 -2 557 -3 48 -30z"/>
<path d="M3632 1676 c-25 -122 -116 -233 -230 -277 -56 -23 -62 -23 -434 -20
l-378 3 0 -91 0 -91 -90 0 -90 0 0 90 0 90 -257 -2 -258 -3 0 -85 0 -85 258
-3 257 -2 0 -224 0 -223 -42 -19 c-59 -26 -125 -89 -156 -149 -23 -43 -27 -62
-27 -140 0 -75 4 -98 24 -140 31 -63 92 -123 156 -155 73 -36 188 -35 266 1
200 94 251 343 105 506 -25 27 -67 59 -95 73 l-51 23 0 222 0 222 383 6 c419
8 451 12 560 70 127 67 237 214 266 355 22 104 23 102 -73 102 l-83 0 -11 -54z
m-1068 -1100 c51 -21 81 -71 81 -133 0 -86 -60 -147 -145 -147 -85 0 -145 61
-145 147 0 111 103 177 209 133z"/>
<path d="M1720 925 l0 -276 -44 -19 c-163 -69 -237 -281 -155 -442 30 -59 104
-125 168 -149 82 -31 196 -24 269 16 107 58 167 162 166 285 0 125 -67 231
-180 286 l-54 26 0 274 0 274 -85 0 -85 0 0 -275z m150 -457 c60 -31 82 -64
83 -127 2 -112 -113 -184 -213 -133 -109 54 -107 213 3 262 54 25 73 25 127
-2z"/>
<path d="M3110 1095 l0 -104 -55 -26 c-170 -81 -232 -307 -127 -464 135 -200
438 -181 550 34 36 71 42 179 13 256 -29 77 -87 141 -155 170 l-56 24 0 108 0
107 -85 0 -85 0 0 -105z m37 -101 c-3 -3 -12 -4 -19 -1 -8 3 -5 6 6 6 11 1 17
-2 13 -5z m107 -178 c66 -27 105 -109 85 -179 -27 -97 -144 -139 -231 -82 -67
44 -86 125 -47 195 39 69 120 97 193 66z"/>
</g>
</svg>
